<svg version="1.1" xmlns="http://www.w3.org/2000/svg" viewBox="0 0 65.50390625 66" width="131.0078125" height="132">
  <!-- svg-source:excalidraw -->
  
  <defs>
    <style class="style-fonts">
      @font-face {
        font-family: "Virgil";
        src: url("https://excalidraw.com/Virgil.woff2");
      }
      @font-face {
        font-family: "Cascadia";
        src: url("https://excalidraw.com/Cascadia.woff2");
      }
      @font-face {
        font-family: "Assistant";
        src: url("https://excalidraw.com/Assistant-Regular.woff2");
      }
    </style>
    
  </defs>
  <rect x="0" y="0" width="65.50390625" height="66" fill="#ffffff"></rect><g transform="translate(20.26171875 11) rotate(0 10.944000244140625 22.5)"><text x="0" y="0" font-family="Virgil, Segoe UI Emoji" font-size="36px" fill="#1971c2" text-anchor="start" style="white-space: pre;" direction="ltr" dominant-baseline="text-before-edge">S</text></g><g stroke-linecap="round" transform="translate(10 10) rotate(0 22.751953125 21.75)"><path d="M45.5 21.75 C45.5 23.01, 45.39 24.29, 45.16 25.53 C44.93 26.77, 44.58 28.01, 44.13 29.19 C43.68 30.37, 43.11 31.53, 42.46 32.62 C41.8 33.72, 41.03 34.77, 40.18 35.73 C39.33 36.7, 38.39 37.6, 37.38 38.41 C36.37 39.22, 35.27 39.96, 34.13 40.59 C32.99 41.22, 31.77 41.76, 30.53 42.19 C29.3 42.62, 28 42.95, 26.7 43.17 C25.41 43.39, 24.07 43.5, 22.75 43.5 C21.44 43.5, 20.1 43.39, 18.8 43.17 C17.5 42.95, 16.21 42.62, 14.97 42.19 C13.73 41.76, 12.52 41.22, 11.38 40.59 C10.24 39.96, 9.14 39.22, 8.13 38.41 C7.12 37.6, 6.17 36.7, 5.32 35.73 C4.48 34.77, 3.71 33.72, 3.05 32.63 C2.39 31.53, 1.82 30.37, 1.37 29.19 C0.92 28.01, 0.57 26.77, 0.35 25.53 C0.12 24.29, 0 23.01, 0 21.75 C0 20.49, 0.12 19.21, 0.35 17.97 C0.57 16.73, 0.92 15.49, 1.37 14.31 C1.82 13.13, 2.39 11.97, 3.05 10.88 C3.71 9.78, 4.48 8.73, 5.32 7.77 C6.17 6.8, 7.12 5.9, 8.13 5.09 C9.14 4.28, 10.24 3.54, 11.38 2.91 C12.52 2.28, 13.73 1.74, 14.97 1.31 C16.21 0.88, 17.5 0.55, 18.8 0.33 C20.1 0.11, 21.44 0, 22.75 0 C24.07 0, 25.41 0.11, 26.7 0.33 C28 0.55, 29.3 0.88, 30.53 1.31 C31.77 1.74, 32.99 2.28, 34.13 2.91 C35.27 3.54, 36.37 4.28, 37.38 5.09 C38.39 5.9, 39.33 6.8, 40.18 7.77 C41.03 8.73, 41.8 9.78, 42.46 10.87 C43.11 11.97, 43.68 13.13, 44.13 14.31 C44.58 15.49, 44.93 16.73, 45.16 17.97 C45.39 19.21, 45.45 21.12, 45.5 21.75 C45.56 22.38, 45.56 21.12, 45.5 21.75" stroke="#1971c2" stroke-width="1" fill="none"></path></g></svg>